<?xml version="1.0" encoding="UTF-8" standalone="no"?>
<!DOCTYPE svg PUBLIC "-//W3C//DTD SVG 1.1//EN"
 "http://www.w3.org/Graphics/SVG/1.1/DTD/svg11.dtd">
<!-- Generated by graphviz version 2.38.0 (20140413.2041)
 -->
<!-- Title: controllers_diagram Pages: 1 -->
<svg width="1126pt" height="1005pt"
 viewBox="0.00 0.00 1125.77 1005.23" xmlns="http://www.w3.org/2000/svg" xmlns:xlink="http://www.w3.org/1999/xlink">
<g id="graph0" class="graph" transform="scale(1 1) rotate(0) translate(543.321 539.5)">
<title>controllers_diagram</title>
<polygon fill="none" stroke="none" points="-543.321,465.734 -543.321,-539.5 582.447,-539.5 582.447,465.734 -543.321,465.734"/>
<!-- _diagram_info -->
<g id="node1" class="node"><title>_diagram_info</title>
<text text-anchor="start" x="7.55029" y="-521.1" font-family="Times,serif" font-size="13.00">Controllers diagram</text>
<text text-anchor="start" x="7.55029" y="-508.1" font-family="Times,serif" font-size="13.00">Date: Nov 23 2016 &#45; 12:41</text>
<text text-anchor="start" x="7.55029" y="-495.1" font-family="Times,serif" font-size="13.00">Migration version: 20161101235400</text>
<text text-anchor="start" x="7.55029" y="-482.1" font-family="Times,serif" font-size="13.00">Generated by RailRoady 1.5.2</text>
<text text-anchor="start" x="7.55029" y="-469.1" font-family="Times,serif" font-size="13.00">http://railroady.prestonlee.com</text>
</g>
<!-- ApplicationController -->
<g id="node2" class="node"><title>ApplicationController</title>
<path fill="none" stroke="black" d="M-221.004,74.8176C-221.004,74.8176 -47.0727,74.8176 -47.0727,74.8176 -41.0727,74.8176 -35.0727,68.8176 -35.0727,62.8176 -35.0727,62.8176 -35.0727,-3.18238 -35.0727,-3.18238 -35.0727,-9.18238 -41.0727,-15.1824 -47.0727,-15.1824 -47.0727,-15.1824 -221.004,-15.1824 -221.004,-15.1824 -227.004,-15.1824 -233.004,-9.18238 -233.004,-3.18238 -233.004,-3.18238 -233.004,62.8176 -233.004,62.8176 -233.004,68.8176 -227.004,74.8176 -221.004,74.8176"/>
<text text-anchor="middle" x="-134.039" y="0.0176222" font-family="Times,serif" font-size="14.00">ApplicationController</text>
<polyline fill="none" stroke="black" points="-233.004,6.81762 -35.0727,6.81762 "/>
<polyline fill="none" stroke="black" points="-233.004,30.8176 -35.0727,30.8176 "/>
<text text-anchor="start" x="-225.004" y="46.0176" font-family="Times,serif" font-size="14.00">configure_permitted_parameters</text>
<polyline fill="none" stroke="black" points="-233.004,52.8176 -35.0727,52.8176 "/>
<text text-anchor="start" x="-225.004" y="68.0176" font-family="Times,serif" font-size="14.00">_layout</text>
</g>
<!-- PagesController -->
<g id="node3" class="node"><title>PagesController</title>
<path fill="none" stroke="black" d="M-166.735,-260.355C-166.735,-260.355 -84.5277,-260.355 -84.5277,-260.355 -78.5277,-260.355 -72.5277,-266.355 -72.5277,-272.355 -72.5277,-272.355 -72.5277,-352.355 -72.5277,-352.355 -72.5277,-358.355 -78.5277,-364.355 -84.5277,-364.355 -84.5277,-364.355 -166.735,-364.355 -166.735,-364.355 -172.735,-364.355 -178.735,-358.355 -178.735,-352.355 -178.735,-352.355 -178.735,-272.355 -178.735,-272.355 -178.735,-266.355 -172.735,-260.355 -166.735,-260.355"/>
<text text-anchor="middle" x="-125.631" y="-349.155" font-family="Times,serif" font-size="14.00">PagesController</text>
<polyline fill="none" stroke="black" points="-178.735,-342.355 -72.5277,-342.355 "/>
<text text-anchor="start" x="-170.735" y="-327.155" font-family="Times,serif" font-size="14.00">about</text>
<text text-anchor="start" x="-170.735" y="-313.155" font-family="Times,serif" font-size="14.00">contact</text>
<polyline fill="none" stroke="black" points="-178.735,-306.355 -72.5277,-306.355 "/>
<polyline fill="none" stroke="black" points="-178.735,-282.355 -72.5277,-282.355 "/>
<text text-anchor="start" x="-170.735" y="-267.155" font-family="Times,serif" font-size="14.00">_layout</text>
</g>
<!-- ApplicationController&#45;&gt;PagesController -->
<g id="edge1" class="edge"><title>ApplicationController&#45;&gt;PagesController</title>
<path fill="none" stroke="black" d="M-132.931,-15.2674C-131.377,-78.5111 -128.556,-193.301 -126.914,-260.165"/>
</g>
<!-- RestaurantsController -->
<g id="node4" class="node"><title>RestaurantsController</title>
<path fill="none" stroke="black" d="M-490.964,148.18C-490.964,148.18 -376.102,148.18 -376.102,148.18 -370.102,148.18 -364.102,142.18 -364.102,136.18 -364.102,136.18 -364.102,-69.8195 -364.102,-69.8195 -364.102,-75.8195 -370.102,-81.8195 -376.102,-81.8195 -376.102,-81.8195 -490.964,-81.8195 -490.964,-81.8195 -496.964,-81.8195 -502.964,-75.8195 -502.964,-69.8195 -502.964,-69.8195 -502.964,136.18 -502.964,136.18 -502.964,142.18 -496.964,148.18 -490.964,148.18"/>
<text text-anchor="middle" x="-433.533" y="-66.6195" font-family="Times,serif" font-size="14.00">RestaurantsController</text>
<polyline fill="none" stroke="black" points="-502.964,-59.8195 -364.102,-59.8195 "/>
<text text-anchor="start" x="-494.964" y="-44.6195" font-family="Times,serif" font-size="14.00">update</text>
<text text-anchor="start" x="-494.964" y="-30.6195" font-family="Times,serif" font-size="14.00">destroy</text>
<text text-anchor="start" x="-494.964" y="-16.6195" font-family="Times,serif" font-size="14.00">edit</text>
<text text-anchor="start" x="-494.964" y="-2.61953" font-family="Times,serif" font-size="14.00">index</text>
<text text-anchor="start" x="-494.964" y="11.3805" font-family="Times,serif" font-size="14.00">new</text>
<text text-anchor="start" x="-494.964" y="25.3805" font-family="Times,serif" font-size="14.00">search</text>
<text text-anchor="start" x="-494.964" y="39.3805" font-family="Times,serif" font-size="14.00">show</text>
<text text-anchor="start" x="-494.964" y="53.3805" font-family="Times,serif" font-size="14.00">create</text>
<polyline fill="none" stroke="black" points="-502.964,60.1805 -364.102,60.1805 "/>
<polyline fill="none" stroke="black" points="-502.964,84.1805 -364.102,84.1805 "/>
<text text-anchor="start" x="-494.964" y="99.3805" font-family="Times,serif" font-size="14.00">_layout</text>
<text text-anchor="start" x="-494.964" y="113.38" font-family="Times,serif" font-size="14.00">check_user</text>
<text text-anchor="start" x="-494.964" y="127.38" font-family="Times,serif" font-size="14.00">restaurant_params</text>
<text text-anchor="start" x="-494.964" y="141.38" font-family="Times,serif" font-size="14.00">set_restaurant</text>
</g>
<!-- ApplicationController&#45;&gt;RestaurantsController -->
<g id="edge2" class="edge"><title>ApplicationController&#45;&gt;RestaurantsController</title>
<path fill="none" stroke="black" d="M-233.35,30.9327C-276.089,31.4126 -325.033,31.9622 -363.828,32.3978"/>
</g>
<!-- ReviewsController -->
<g id="node5" class="node"><title>ReviewsController</title>
<path fill="none" stroke="black" d="M-472.55,-202.364C-472.55,-202.364 -374.791,-202.364 -374.791,-202.364 -368.791,-202.364 -362.791,-208.364 -362.791,-214.364 -362.791,-214.364 -362.791,-392.364 -362.791,-392.364 -362.791,-398.364 -368.791,-404.364 -374.791,-404.364 -374.791,-404.364 -472.55,-404.364 -472.55,-404.364 -478.55,-404.364 -484.55,-398.364 -484.55,-392.364 -484.55,-392.364 -484.55,-214.364 -484.55,-214.364 -484.55,-208.364 -478.55,-202.364 -472.55,-202.364"/>
<text text-anchor="middle" x="-423.67" y="-389.164" font-family="Times,serif" font-size="14.00">ReviewsController</text>
<polyline fill="none" stroke="black" points="-484.55,-382.364 -362.791,-382.364 "/>
<text text-anchor="start" x="-476.55" y="-367.164" font-family="Times,serif" font-size="14.00">create</text>
<text text-anchor="start" x="-476.55" y="-353.164" font-family="Times,serif" font-size="14.00">destroy</text>
<text text-anchor="start" x="-476.55" y="-339.164" font-family="Times,serif" font-size="14.00">edit</text>
<text text-anchor="start" x="-476.55" y="-325.164" font-family="Times,serif" font-size="14.00">new</text>
<text text-anchor="start" x="-476.55" y="-311.164" font-family="Times,serif" font-size="14.00">update</text>
<polyline fill="none" stroke="black" points="-484.55,-304.364 -362.791,-304.364 "/>
<polyline fill="none" stroke="black" points="-484.55,-280.364 -362.791,-280.364 "/>
<text text-anchor="start" x="-476.55" y="-265.164" font-family="Times,serif" font-size="14.00">_layout</text>
<text text-anchor="start" x="-476.55" y="-251.164" font-family="Times,serif" font-size="14.00">check_user</text>
<text text-anchor="start" x="-476.55" y="-237.164" font-family="Times,serif" font-size="14.00">review_params</text>
<text text-anchor="start" x="-476.55" y="-223.164" font-family="Times,serif" font-size="14.00">set_restaurant</text>
<text text-anchor="start" x="-476.55" y="-209.164" font-family="Times,serif" font-size="14.00">set_review</text>
</g>
<!-- ApplicationController&#45;&gt;ReviewsController -->
<g id="edge3" class="edge"><title>ApplicationController&#45;&gt;ReviewsController</title>
<path fill="none" stroke="black" d="M-173.401,-15.4635C-222.122,-71.5101 -305.623,-167.567 -362.668,-233.189"/>
</g>
<!-- DeviseController -->
<g id="node12" class="node"><title>DeviseController</title>
<path fill="none" stroke="black" d="M50.3469,243.047C50.3469,243.047 221.223,243.047 221.223,243.047 227.223,243.047 233.223,237.047 233.223,231.047 233.223,231.047 233.223,-112.953 233.223,-112.953 233.223,-118.953 227.223,-124.953 221.223,-124.953 221.223,-124.953 50.3469,-124.953 50.3469,-124.953 44.3469,-124.953 38.3469,-118.953 38.3469,-112.953 38.3469,-112.953 38.3469,231.047 38.3469,231.047 38.3469,237.047 44.3469,243.047 50.3469,243.047"/>
<text text-anchor="middle" x="135.785" y="-109.753" font-family="Times,serif" font-size="14.00">DeviseController</text>
<polyline fill="none" stroke="black" points="38.3469,-102.953 233.223,-102.953 "/>
<text text-anchor="start" x="46.3469" y="-87.7534" font-family="Times,serif" font-size="14.00">_prefixes</text>
<polyline fill="none" stroke="black" points="38.3469,-80.9534 233.223,-80.9534 "/>
<text text-anchor="start" x="46.3469" y="-65.7534" font-family="Times,serif" font-size="14.00">unknown_action!</text>
<text text-anchor="start" x="46.3469" y="-51.7534" font-family="Times,serif" font-size="14.00">clean_up_passwords</text>
<text text-anchor="start" x="46.3469" y="-37.7534" font-family="Times,serif" font-size="14.00">devise_i18n_options</text>
<text text-anchor="start" x="46.3469" y="-23.7534" font-family="Times,serif" font-size="14.00">devise_mapping</text>
<text text-anchor="start" x="46.3469" y="-9.75342" font-family="Times,serif" font-size="14.00">find_message</text>
<text text-anchor="start" x="46.3469" y="4.24658" font-family="Times,serif" font-size="14.00">navigational_formats</text>
<text text-anchor="start" x="46.3469" y="18.2466" font-family="Times,serif" font-size="14.00">require_no_authentication</text>
<text text-anchor="start" x="46.3469" y="32.2466" font-family="Times,serif" font-size="14.00">resource</text>
<text text-anchor="start" x="46.3469" y="46.2466" font-family="Times,serif" font-size="14.00">resource=</text>
<text text-anchor="start" x="46.3469" y="60.2466" font-family="Times,serif" font-size="14.00">resource_class</text>
<text text-anchor="start" x="46.3469" y="74.2466" font-family="Times,serif" font-size="14.00">resource_name</text>
<text text-anchor="start" x="46.3469" y="88.2466" font-family="Times,serif" font-size="14.00">resource_params</text>
<text text-anchor="start" x="46.3469" y="102.247" font-family="Times,serif" font-size="14.00">respond_with_navigational</text>
<text text-anchor="start" x="46.3469" y="116.247" font-family="Times,serif" font-size="14.00">scope_name</text>
<text text-anchor="start" x="46.3469" y="130.247" font-family="Times,serif" font-size="14.00">set_flash_message</text>
<text text-anchor="start" x="46.3469" y="144.247" font-family="Times,serif" font-size="14.00">set_flash_message!</text>
<text text-anchor="start" x="46.3469" y="158.247" font-family="Times,serif" font-size="14.00">set_minimum_password_length</text>
<text text-anchor="start" x="46.3469" y="172.247" font-family="Times,serif" font-size="14.00">signed_in_resource</text>
<text text-anchor="start" x="46.3469" y="186.247" font-family="Times,serif" font-size="14.00">successfully_sent?</text>
<text text-anchor="start" x="46.3469" y="200.247" font-family="Times,serif" font-size="14.00">translation_scope</text>
<text text-anchor="start" x="46.3469" y="214.247" font-family="Times,serif" font-size="14.00">assert_is_devise_resource!</text>
<polyline fill="none" stroke="black" points="38.3469,221.047 233.223,221.047 "/>
<text text-anchor="start" x="46.3469" y="236.247" font-family="Times,serif" font-size="14.00">_layout</text>
</g>
<!-- ApplicationController&#45;&gt;DeviseController -->
<g id="edge10" class="edge"><title>ApplicationController&#45;&gt;DeviseController</title>
<path fill="none" stroke="black" d="M-34.7158,40.5769C-10.974,43.1487 14.3515,45.8922 38.0222,48.4563"/>
</g>
<!-- Devise::ConfirmationsController -->
<g id="node6" class="node"><title>Devise::ConfirmationsController</title>
<path fill="none" stroke="black" d="M282.074,-238.767C282.074,-238.767 566.447,-238.767 566.447,-238.767 572.447,-238.767 578.447,-244.767 578.447,-250.767 578.447,-250.767 578.447,-370.767 578.447,-370.767 578.447,-376.767 572.447,-382.767 566.447,-382.767 566.447,-382.767 282.074,-382.767 282.074,-382.767 276.074,-382.767 270.074,-376.767 270.074,-370.767 270.074,-370.767 270.074,-250.767 270.074,-250.767 270.074,-244.767 276.074,-238.767 282.074,-238.767"/>
<text text-anchor="middle" x="424.261" y="-367.567" font-family="Times,serif" font-size="14.00">Devise::ConfirmationsController</text>
<polyline fill="none" stroke="black" points="270.074,-360.767 578.447,-360.767 "/>
<text text-anchor="start" x="278.074" y="-345.567" font-family="Times,serif" font-size="14.00">create</text>
<text text-anchor="start" x="278.074" y="-331.567" font-family="Times,serif" font-size="14.00">new</text>
<text text-anchor="start" x="278.074" y="-317.567" font-family="Times,serif" font-size="14.00">show</text>
<polyline fill="none" stroke="black" points="270.074,-310.767 578.447,-310.767 "/>
<text text-anchor="start" x="278.074" y="-295.567" font-family="Times,serif" font-size="14.00">after_confirmation_path_for</text>
<text text-anchor="start" x="278.074" y="-281.567" font-family="Times,serif" font-size="14.00">after_resending_confirmation_instructions_path_for</text>
<text text-anchor="start" x="278.074" y="-267.567" font-family="Times,serif" font-size="14.00">translation_scope</text>
<polyline fill="none" stroke="black" points="270.074,-260.767 578.447,-260.767 "/>
<text text-anchor="start" x="278.074" y="-245.567" font-family="Times,serif" font-size="14.00">_layout</text>
</g>
<!-- Devise::OmniauthCallbacksController -->
<g id="node7" class="node"><title>Devise::OmniauthCallbacksController</title>
<path fill="none" stroke="black" d="M27.3264,-215.118C27.3264,-215.118 234.727,-215.118 234.727,-215.118 240.727,-215.118 246.727,-221.118 246.727,-227.118 246.727,-227.118 246.727,-347.118 246.727,-347.118 246.727,-353.118 240.727,-359.118 234.727,-359.118 234.727,-359.118 27.3264,-359.118 27.3264,-359.118 21.3264,-359.118 15.3264,-353.118 15.3264,-347.118 15.3264,-347.118 15.3264,-227.118 15.3264,-227.118 15.3264,-221.118 21.3264,-215.118 27.3264,-215.118"/>
<text text-anchor="middle" x="131.027" y="-343.918" font-family="Times,serif" font-size="14.00">Devise::OmniauthCallbacksController</text>
<polyline fill="none" stroke="black" points="15.3264,-337.118 246.727,-337.118 "/>
<text text-anchor="start" x="23.3264" y="-321.918" font-family="Times,serif" font-size="14.00">failure</text>
<text text-anchor="start" x="23.3264" y="-307.918" font-family="Times,serif" font-size="14.00">passthru</text>
<polyline fill="none" stroke="black" points="15.3264,-301.118 246.727,-301.118 "/>
<text text-anchor="start" x="23.3264" y="-285.918" font-family="Times,serif" font-size="14.00">after_omniauth_failure_path_for</text>
<text text-anchor="start" x="23.3264" y="-271.918" font-family="Times,serif" font-size="14.00">failed_strategy</text>
<text text-anchor="start" x="23.3264" y="-257.918" font-family="Times,serif" font-size="14.00">failure_message</text>
<text text-anchor="start" x="23.3264" y="-243.918" font-family="Times,serif" font-size="14.00">translation_scope</text>
<polyline fill="none" stroke="black" points="15.3264,-237.118 246.727,-237.118 "/>
<text text-anchor="start" x="23.3264" y="-221.918" font-family="Times,serif" font-size="14.00">_layout</text>
</g>
<!-- Devise::PasswordsController -->
<g id="node8" class="node"><title>Devise::PasswordsController</title>
<path fill="none" stroke="black" d="M-527.321,448.862C-527.321,448.862 -239.058,448.862 -239.058,448.862 -233.058,448.862 -227.058,442.862 -227.058,436.862 -227.058,436.862 -227.058,274.862 -227.058,274.862 -227.058,268.862 -233.058,262.862 -239.058,262.862 -239.058,262.862 -527.321,262.862 -527.321,262.862 -533.321,262.862 -539.321,268.862 -539.321,274.862 -539.321,274.862 -539.321,436.862 -539.321,436.862 -539.321,442.862 -533.321,448.862 -527.321,448.862"/>
<text text-anchor="middle" x="-383.19" y="278.062" font-family="Times,serif" font-size="14.00">Devise::PasswordsController</text>
<polyline fill="none" stroke="black" points="-539.321,284.862 -227.058,284.862 "/>
<text text-anchor="start" x="-531.321" y="300.062" font-family="Times,serif" font-size="14.00">create</text>
<text text-anchor="start" x="-531.321" y="314.062" font-family="Times,serif" font-size="14.00">edit</text>
<text text-anchor="start" x="-531.321" y="328.062" font-family="Times,serif" font-size="14.00">new</text>
<text text-anchor="start" x="-531.321" y="342.062" font-family="Times,serif" font-size="14.00">update</text>
<polyline fill="none" stroke="black" points="-539.321,348.862 -227.058,348.862 "/>
<text text-anchor="start" x="-531.321" y="364.062" font-family="Times,serif" font-size="14.00">after_resetting_password_path_for</text>
<text text-anchor="start" x="-531.321" y="378.062" font-family="Times,serif" font-size="14.00">after_sending_reset_password_instructions_path_for</text>
<text text-anchor="start" x="-531.321" y="392.062" font-family="Times,serif" font-size="14.00">assert_reset_token_passed</text>
<text text-anchor="start" x="-531.321" y="406.062" font-family="Times,serif" font-size="14.00">translation_scope</text>
<text text-anchor="start" x="-531.321" y="420.062" font-family="Times,serif" font-size="14.00">unlockable?</text>
<polyline fill="none" stroke="black" points="-539.321,426.862 -227.058,426.862 "/>
<text text-anchor="start" x="-531.321" y="442.062" font-family="Times,serif" font-size="14.00">_layout</text>
</g>
<!-- Devise::RegistrationsController -->
<g id="node9" class="node"><title>Devise::RegistrationsController</title>
<path fill="none" stroke="black" d="M345.241,173.43C345.241,173.43 519.959,173.43 519.959,173.43 525.959,173.43 531.959,167.43 531.959,161.43 531.959,161.43 531.959,-112.57 531.959,-112.57 531.959,-118.57 525.959,-124.57 519.959,-124.57 519.959,-124.57 345.241,-124.57 345.241,-124.57 339.241,-124.57 333.241,-118.57 333.241,-112.57 333.241,-112.57 333.241,161.43 333.241,161.43 333.241,167.43 339.241,173.43 345.241,173.43"/>
<text text-anchor="middle" x="432.6" y="-109.37" font-family="Times,serif" font-size="14.00">Devise::RegistrationsController</text>
<polyline fill="none" stroke="black" points="333.241,-102.57 531.959,-102.57 "/>
<text text-anchor="start" x="341.241" y="-87.3704" font-family="Times,serif" font-size="14.00">cancel</text>
<text text-anchor="start" x="341.241" y="-73.3704" font-family="Times,serif" font-size="14.00">create</text>
<text text-anchor="start" x="341.241" y="-59.3704" font-family="Times,serif" font-size="14.00">destroy</text>
<text text-anchor="start" x="341.241" y="-45.3704" font-family="Times,serif" font-size="14.00">edit</text>
<text text-anchor="start" x="341.241" y="-31.3704" font-family="Times,serif" font-size="14.00">new</text>
<text text-anchor="start" x="341.241" y="-17.3704" font-family="Times,serif" font-size="14.00">update</text>
<polyline fill="none" stroke="black" points="333.241,-10.5704 531.959,-10.5704 "/>
<text text-anchor="start" x="341.241" y="4.62963" font-family="Times,serif" font-size="14.00">update_resource</text>
<text text-anchor="start" x="341.241" y="18.6296" font-family="Times,serif" font-size="14.00">after_inactive_sign_up_path_for</text>
<text text-anchor="start" x="341.241" y="32.6296" font-family="Times,serif" font-size="14.00">after_sign_up_path_for</text>
<text text-anchor="start" x="341.241" y="46.6296" font-family="Times,serif" font-size="14.00">after_update_path_for</text>
<text text-anchor="start" x="341.241" y="60.6296" font-family="Times,serif" font-size="14.00">authenticate_scope!</text>
<text text-anchor="start" x="341.241" y="74.6296" font-family="Times,serif" font-size="14.00">build_resource</text>
<text text-anchor="start" x="341.241" y="88.6296" font-family="Times,serif" font-size="14.00">sign_up</text>
<text text-anchor="start" x="341.241" y="102.63" font-family="Times,serif" font-size="14.00">sign_up_params</text>
<text text-anchor="start" x="341.241" y="116.63" font-family="Times,serif" font-size="14.00">translation_scope</text>
<text text-anchor="start" x="341.241" y="130.63" font-family="Times,serif" font-size="14.00">update_needs_confirmation?</text>
<text text-anchor="start" x="341.241" y="144.63" font-family="Times,serif" font-size="14.00">account_update_params</text>
<polyline fill="none" stroke="black" points="333.241,151.43 531.959,151.43 "/>
<text text-anchor="start" x="341.241" y="166.63" font-family="Times,serif" font-size="14.00">_layout</text>
</g>
<!-- Devise::SessionsController -->
<g id="node10" class="node"><title>Devise::SessionsController</title>
<path fill="none" stroke="black" d="M-76.5292,461.234C-76.5292,461.234 67.9054,461.234 67.9054,461.234 73.9054,461.234 79.9054,455.234 79.9054,449.234 79.9054,449.234 79.9054,273.234 79.9054,273.234 79.9054,267.234 73.9054,261.234 67.9054,261.234 67.9054,261.234 -76.5292,261.234 -76.5292,261.234 -82.5292,261.234 -88.5292,267.234 -88.5292,273.234 -88.5292,273.234 -88.5292,449.234 -88.5292,449.234 -88.5292,455.234 -82.5292,461.234 -76.5292,461.234"/>
<text text-anchor="middle" x="-4.31191" y="276.434" font-family="Times,serif" font-size="14.00">Devise::SessionsController</text>
<polyline fill="none" stroke="black" points="-88.5292,283.234 79.9054,283.234 "/>
<text text-anchor="start" x="-80.5292" y="298.434" font-family="Times,serif" font-size="14.00">create</text>
<text text-anchor="start" x="-80.5292" y="312.434" font-family="Times,serif" font-size="14.00">destroy</text>
<text text-anchor="start" x="-80.5292" y="326.434" font-family="Times,serif" font-size="14.00">new</text>
<polyline fill="none" stroke="black" points="-88.5292,333.234 79.9054,333.234 "/>
<text text-anchor="start" x="-80.5292" y="348.434" font-family="Times,serif" font-size="14.00">auth_options</text>
<text text-anchor="start" x="-80.5292" y="362.434" font-family="Times,serif" font-size="14.00">serialize_options</text>
<text text-anchor="start" x="-80.5292" y="376.434" font-family="Times,serif" font-size="14.00">sign_in_params</text>
<text text-anchor="start" x="-80.5292" y="390.434" font-family="Times,serif" font-size="14.00">translation_scope</text>
<polyline fill="none" stroke="black" points="-88.5292,397.234 79.9054,397.234 "/>
<text text-anchor="start" x="-80.5292" y="412.434" font-family="Times,serif" font-size="14.00">_layout</text>
<text text-anchor="start" x="-80.5292" y="426.434" font-family="Times,serif" font-size="14.00">all_signed_out?</text>
<text text-anchor="start" x="-80.5292" y="440.434" font-family="Times,serif" font-size="14.00">respond_to_on_destroy</text>
<text text-anchor="start" x="-80.5292" y="454.434" font-family="Times,serif" font-size="14.00">verify_signed_out_user</text>
</g>
<!-- Devise::UnlocksController -->
<g id="node11" class="node"><title>Devise::UnlocksController</title>
<path fill="none" stroke="black" d="M265.054,427.925C265.054,427.925 505.11,427.925 505.11,427.925 511.11,427.925 517.11,421.925 517.11,415.925 517.11,415.925 517.11,295.925 517.11,295.925 517.11,289.925 511.11,283.925 505.11,283.925 505.11,283.925 265.054,283.925 265.054,283.925 259.054,283.925 253.054,289.925 253.054,295.925 253.054,295.925 253.054,415.925 253.054,415.925 253.054,421.925 259.054,427.925 265.054,427.925"/>
<text text-anchor="middle" x="385.082" y="299.125" font-family="Times,serif" font-size="14.00">Devise::UnlocksController</text>
<polyline fill="none" stroke="black" points="253.054,305.925 517.11,305.925 "/>
<text text-anchor="start" x="261.054" y="321.125" font-family="Times,serif" font-size="14.00">create</text>
<text text-anchor="start" x="261.054" y="335.125" font-family="Times,serif" font-size="14.00">new</text>
<text text-anchor="start" x="261.054" y="349.125" font-family="Times,serif" font-size="14.00">show</text>
<polyline fill="none" stroke="black" points="253.054,355.925 517.11,355.925 "/>
<text text-anchor="start" x="261.054" y="371.125" font-family="Times,serif" font-size="14.00">after_sending_unlock_instructions_path_for</text>
<text text-anchor="start" x="261.054" y="385.125" font-family="Times,serif" font-size="14.00">after_unlock_path_for</text>
<text text-anchor="start" x="261.054" y="399.125" font-family="Times,serif" font-size="14.00">translation_scope</text>
<polyline fill="none" stroke="black" points="253.054,405.925 517.11,405.925 "/>
<text text-anchor="start" x="261.054" y="421.125" font-family="Times,serif" font-size="14.00">_layout</text>
</g>
<!-- DeviseController&#45;&gt;Devise::ConfirmationsController -->
<g id="edge4" class="edge"><title>DeviseController&#45;&gt;Devise::ConfirmationsController</title>
<path fill="none" stroke="black" d="M233.249,-65.8974C278.133,-123.437 329.793,-189.664 368.063,-238.723"/>
</g>
<!-- DeviseController&#45;&gt;Devise::OmniauthCallbacksController -->
<g id="edge5" class="edge"><title>DeviseController&#45;&gt;Devise::OmniauthCallbacksController</title>
<path fill="none" stroke="black" d="M133.252,-125.184C132.815,-156.993 132.385,-188.297 132.021,-214.776"/>
</g>
<!-- DeviseController&#45;&gt;Devise::PasswordsController -->
<g id="edge6" class="edge"><title>DeviseController&#45;&gt;Devise::PasswordsController</title>
<path fill="none" stroke="black" d="M38.1697,114.875C-36.4102,157.529 -140.693,217.172 -226.853,266.449"/>
</g>
<!-- DeviseController&#45;&gt;Devise::RegistrationsController -->
<g id="edge7" class="edge"><title>DeviseController&#45;&gt;Devise::RegistrationsController</title>
<path fill="none" stroke="black" d="M233.384,47.6637C265.403,43.9294 301.01,39.7766 333.164,36.0267"/>
</g>
<!-- DeviseController&#45;&gt;Devise::SessionsController -->
<g id="edge8" class="edge"><title>DeviseController&#45;&gt;Devise::SessionsController</title>
<path fill="none" stroke="black" d="M50.4551,243.102C47.6555,249.141 44.8902,255.105 42.1783,260.955"/>
</g>
<!-- DeviseController&#45;&gt;Devise::UnlocksController -->
<g id="edge9" class="edge"><title>DeviseController&#45;&gt;Devise::UnlocksController</title>
<path fill="none" stroke="black" d="M233.241,175.103C263.968,211.694 297.012,251.045 324.403,283.664"/>
</g>
</g>
</svg>
