<?xml version="1.0" encoding="UTF-8" standalone="no"?>
<!DOCTYPE svg PUBLIC "-//W3C//DTD SVG 1.1//EN"
 "http://www.w3.org/Graphics/SVG/1.1/DTD/svg11.dtd">
<!-- Generated by graphviz version 2.38.0 (20140413.2041)
 -->
<!-- Title: models_diagram Pages: 1 -->
<svg width="543pt" height="537pt"
 viewBox="0.00 0.00 542.73 537.00" xmlns="http://www.w3.org/2000/svg" xmlns:xlink="http://www.w3.org/1999/xlink">
<g id="graph0" class="graph" transform="scale(1 1) rotate(0) translate(4 533)">
<title>models_diagram</title>
<polygon fill="none" stroke="none" points="-4,4 -4,-533 538.728,-533 538.728,4 -4,4"/>
<!-- _diagram_info -->
<g id="node1" class="node"><title>_diagram_info</title>
<text text-anchor="start" x="8" y="-514.6" font-family="Times,serif" font-size="13.00">Models diagram</text>
<text text-anchor="start" x="8" y="-501.6" font-family="Times,serif" font-size="13.00">Date: Nov 23 2016 &#45; 12:41</text>
<text text-anchor="start" x="8" y="-488.6" font-family="Times,serif" font-size="13.00">Migration version: 20161101235400</text>
<text text-anchor="start" x="8" y="-475.6" font-family="Times,serif" font-size="13.00">Generated by RailRoady 1.5.2</text>
<text text-anchor="start" x="8" y="-462.6" font-family="Times,serif" font-size="13.00">http://railroady.prestonlee.com</text>
</g>
<!-- ApplicationRecord -->
<g id="node2" class="node"><title>ApplicationRecord</title>
<ellipse fill="none" stroke="black" cx="302.45" cy="-492.5" rx="77.2916" ry="18"/>
<text text-anchor="middle" x="302.45" y="-488.3" font-family="Times,serif" font-size="14.00">ApplicationRecord</text>
</g>
<!-- Restaurant -->
<g id="node3" class="node"><title>Restaurant</title>
<path fill="none" stroke="black" d="M152.944,-221.5C152.944,-221.5 261.955,-221.5 261.955,-221.5 267.955,-221.5 273.955,-227.5 273.955,-233.5 273.955,-233.5 273.955,-351.5 273.955,-351.5 273.955,-357.5 267.955,-363.5 261.955,-363.5 261.955,-363.5 152.944,-363.5 152.944,-363.5 146.944,-363.5 140.944,-357.5 140.944,-351.5 140.944,-351.5 140.944,-233.5 140.944,-233.5 140.944,-227.5 146.944,-221.5 152.944,-221.5"/>
<text text-anchor="middle" x="207.45" y="-348.3" font-family="Times,serif" font-size="14.00">Restaurant</text>
<polyline fill="none" stroke="black" points="140.944,-341.5 273.955,-341.5 "/>
<text text-anchor="start" x="148.944" y="-326.3" font-family="Times,serif" font-size="14.00">image :varchar</text>
<text text-anchor="start" x="148.944" y="-312.3" font-family="Times,serif" font-size="14.00">name :varchar</text>
<text text-anchor="start" x="148.944" y="-298.3" font-family="Times,serif" font-size="14.00">address :varchar</text>
<text text-anchor="start" x="148.944" y="-284.3" font-family="Times,serif" font-size="14.00">phone :varchar</text>
<text text-anchor="start" x="148.944" y="-270.3" font-family="Times,serif" font-size="14.00">website :varchar</text>
<text text-anchor="start" x="148.944" y="-256.3" font-family="Times,serif" font-size="14.00">created_at :datetime</text>
<text text-anchor="start" x="148.944" y="-242.3" font-family="Times,serif" font-size="14.00">updated_at :datetime</text>
<text text-anchor="start" x="148.944" y="-228.3" font-family="Times,serif" font-size="14.00">id :INTEGER</text>
</g>
<!-- ApplicationRecord&#45;&gt;Restaurant -->
<g id="edge2" class="edge"><title>ApplicationRecord&#45;&gt;Restaurant</title>
<path fill="none" stroke="black" d="M294.185,-474.275C282.403,-449.719 260.094,-403.222 241.052,-363.535"/>
</g>
<!-- Review -->
<g id="node4" class="node"><title>Review</title>
<path fill="none" stroke="black" d="M246.779,-0.5C246.779,-0.5 358.121,-0.5 358.121,-0.5 364.121,-0.5 370.121,-6.5 370.121,-12.5 370.121,-12.5 370.121,-116.5 370.121,-116.5 370.121,-122.5 364.121,-128.5 358.121,-128.5 358.121,-128.5 246.779,-128.5 246.779,-128.5 240.779,-128.5 234.779,-122.5 234.779,-116.5 234.779,-116.5 234.779,-12.5 234.779,-12.5 234.779,-6.5 240.779,-0.5 246.779,-0.5"/>
<text text-anchor="middle" x="302.45" y="-113.3" font-family="Times,serif" font-size="14.00">Review</text>
<polyline fill="none" stroke="black" points="234.779,-106.5 370.121,-106.5 "/>
<text text-anchor="start" x="242.779" y="-91.3" font-family="Times,serif" font-size="14.00">created_at :datetime</text>
<text text-anchor="start" x="242.779" y="-77.3" font-family="Times,serif" font-size="14.00">rating :integer</text>
<text text-anchor="start" x="242.779" y="-63.3" font-family="Times,serif" font-size="14.00">comment :text</text>
<text text-anchor="start" x="242.779" y="-49.3" font-family="Times,serif" font-size="14.00">id :INTEGER</text>
<text text-anchor="start" x="242.779" y="-35.3" font-family="Times,serif" font-size="14.00">updated_at :datetime</text>
<text text-anchor="start" x="242.779" y="-21.3" font-family="Times,serif" font-size="14.00">user_id :integer</text>
<text text-anchor="start" x="242.779" y="-7.3" font-family="Times,serif" font-size="14.00">restaurant_id :integer</text>
</g>
<!-- ApplicationRecord&#45;&gt;Review -->
<g id="edge3" class="edge"><title>ApplicationRecord&#45;&gt;Review</title>
<path fill="none" stroke="black" d="M302.45,-474.273C302.45,-416.601 302.45,-228.344 302.45,-128.693"/>
</g>
<!-- User -->
<g id="node5" class="node"><title>User</title>
<path fill="none" stroke="black" d="M342.172,-165.5C342.172,-165.5 522.728,-165.5 522.728,-165.5 528.728,-165.5 534.728,-171.5 534.728,-177.5 534.728,-177.5 534.728,-407.5 534.728,-407.5 534.728,-413.5 528.728,-419.5 522.728,-419.5 522.728,-419.5 342.172,-419.5 342.172,-419.5 336.172,-419.5 330.172,-413.5 330.172,-407.5 330.172,-407.5 330.172,-177.5 330.172,-177.5 330.172,-171.5 336.172,-165.5 342.172,-165.5"/>
<text text-anchor="middle" x="432.45" y="-404.3" font-family="Times,serif" font-size="14.00">User</text>
<polyline fill="none" stroke="black" points="330.172,-397.5 534.728,-397.5 "/>
<text text-anchor="start" x="338.172" y="-382.3" font-family="Times,serif" font-size="14.00">last_name :varchar</text>
<text text-anchor="start" x="338.172" y="-368.3" font-family="Times,serif" font-size="14.00">email :varchar</text>
<text text-anchor="start" x="338.172" y="-354.3" font-family="Times,serif" font-size="14.00">encrypted_password :varchar</text>
<text text-anchor="start" x="338.172" y="-340.3" font-family="Times,serif" font-size="14.00">reset_password_token :varchar</text>
<text text-anchor="start" x="338.172" y="-326.3" font-family="Times,serif" font-size="14.00">reset_password_sent_at :datetime</text>
<text text-anchor="start" x="338.172" y="-312.3" font-family="Times,serif" font-size="14.00">remember_created_at :datetime</text>
<text text-anchor="start" x="338.172" y="-298.3" font-family="Times,serif" font-size="14.00">sign_in_count :integer</text>
<text text-anchor="start" x="338.172" y="-284.3" font-family="Times,serif" font-size="14.00">current_sign_in_at :datetime</text>
<text text-anchor="start" x="338.172" y="-270.3" font-family="Times,serif" font-size="14.00">last_sign_in_at :datetime</text>
<text text-anchor="start" x="338.172" y="-256.3" font-family="Times,serif" font-size="14.00">current_sign_in_ip :varchar</text>
<text text-anchor="start" x="338.172" y="-242.3" font-family="Times,serif" font-size="14.00">last_sign_in_ip :varchar</text>
<text text-anchor="start" x="338.172" y="-228.3" font-family="Times,serif" font-size="14.00">created_at :datetime</text>
<text text-anchor="start" x="338.172" y="-214.3" font-family="Times,serif" font-size="14.00">updated_at :datetime</text>
<text text-anchor="start" x="338.172" y="-200.3" font-family="Times,serif" font-size="14.00">admin :boolean</text>
<text text-anchor="start" x="338.172" y="-186.3" font-family="Times,serif" font-size="14.00">first_name :varchar</text>
<text text-anchor="start" x="338.172" y="-172.3" font-family="Times,serif" font-size="14.00">id :INTEGER</text>
</g>
<!-- ApplicationRecord&#45;&gt;User -->
<g id="edge5" class="edge"><title>ApplicationRecord&#45;&gt;User</title>
<path fill="none" stroke="black" d="M313.533,-474.619C322.252,-461.339 335.282,-441.494 349.561,-419.746"/>
</g>
<!-- Restaurant&#45;&gt;Review -->
<g id="edge1" class="edge"><title>Restaurant&#45;&gt;Review</title>
<path fill="none" stroke="#4cb68b" d="M240.229,-213.519C250.492,-189.105 261.772,-162.27 271.876,-138.232"/>
<ellipse fill="none" stroke="#4cb68b" cx="238.538" cy="-217.544" rx="4.00001" ry="4.00001"/>
<polygon fill="#4cb68b" stroke="#4cb68b" points="271.958,-138.039 279.981,-130.564 273.895,-133.429 275.833,-128.82 275.833,-128.82 275.833,-128.82 273.895,-133.429 271.685,-127.076 271.958,-138.039 271.958,-138.039"/>
</g>
<!-- User&#45;&gt;Review -->
<g id="edge4" class="edge"><title>User&#45;&gt;Review</title>
<path fill="none" stroke="#a7d950" d="M355.775,-158.203C351.748,-151.203 347.783,-144.31 343.944,-137.637"/>
<ellipse fill="none" stroke="#a7d950" cx="357.854" cy="-161.817" rx="4.00002" ry="4.00002"/>
<polygon fill="#a7d950" stroke="#a7d950" points="343.78,-137.352 342.695,-126.44 341.287,-133.018 338.794,-128.684 338.794,-128.684 338.794,-128.684 341.287,-133.018 334.894,-130.927 343.78,-137.352 343.78,-137.352"/>
</g>
</g>
</svg>
