<?xml version="1.0" encoding="UTF-8" standalone="no"?>
<!DOCTYPE svg PUBLIC "-//W3C//DTD SVG 1.1//EN"
 "http://www.w3.org/Graphics/SVG/1.1/DTD/svg11.dtd">
<!-- Generated by graphviz version 2.38.0 (20140413.2041)
 -->
<!-- Title: models_diagram Pages: 1 -->
<svg width="392pt" height="225pt"
 viewBox="0.00 0.00 392.45 225.00" xmlns="http://www.w3.org/2000/svg" xmlns:xlink="http://www.w3.org/1999/xlink">
<g id="graph0" class="graph" transform="scale(1 1) rotate(0) translate(4 221)">
<title>models_diagram</title>
<polygon fill="none" stroke="none" points="-4,4 -4,-221 388.45,-221 388.45,4 -4,4"/>
<!-- _diagram_info -->
<g id="node1" class="node"><title>_diagram_info</title>
<text text-anchor="start" x="8" y="-202.6" font-family="Times,serif" font-size="13.00">Models diagram</text>
<text text-anchor="start" x="8" y="-189.6" font-family="Times,serif" font-size="13.00">Date: Nov 23 2016 &#45; 12:41</text>
<text text-anchor="start" x="8" y="-176.6" font-family="Times,serif" font-size="13.00">Migration version: 20161101235400</text>
<text text-anchor="start" x="8" y="-163.6" font-family="Times,serif" font-size="13.00">Generated by RailRoady 1.5.2</text>
<text text-anchor="start" x="8" y="-150.6" font-family="Times,serif" font-size="13.00">http://railroady.prestonlee.com</text>
</g>
<!-- ApplicationRecord -->
<g id="node2" class="node"><title>ApplicationRecord</title>
<ellipse fill="none" stroke="black" cx="302.45" cy="-180.5" rx="77.2916" ry="18"/>
<text text-anchor="middle" x="302.45" y="-176.3" font-family="Times,serif" font-size="14.00">ApplicationRecord</text>
</g>
<!-- Restaurant -->
<g id="node3" class="node"><title>Restaurant</title>
<ellipse fill="none" stroke="black" cx="226.45" cy="-90" rx="47.8496" ry="18"/>
<text text-anchor="middle" x="226.45" y="-85.8" font-family="Times,serif" font-size="14.00">Restaurant</text>
</g>
<!-- ApplicationRecord&#45;&gt;Restaurant -->
<g id="edge2" class="edge"><title>ApplicationRecord&#45;&gt;Restaurant</title>
<path fill="none" stroke="black" d="M287.796,-162.436C274.166,-146.564 253.992,-123.073 240.544,-107.413"/>
</g>
<!-- Review -->
<g id="node4" class="node"><title>Review</title>
<ellipse fill="none" stroke="black" cx="302.45" cy="-18" rx="37.2421" ry="18"/>
<text text-anchor="middle" x="302.45" y="-13.8" font-family="Times,serif" font-size="14.00">Review</text>
</g>
<!-- ApplicationRecord&#45;&gt;Review -->
<g id="edge3" class="edge"><title>ApplicationRecord&#45;&gt;Review</title>
<path fill="none" stroke="black" d="M302.45,-162.324C302.45,-131.432 302.45,-66.8545 302.45,-36.0528"/>
</g>
<!-- User -->
<g id="node5" class="node"><title>User</title>
<ellipse fill="none" stroke="black" cx="357.45" cy="-90" rx="27" ry="18"/>
<text text-anchor="middle" x="357.45" y="-85.8" font-family="Times,serif" font-size="14.00">User</text>
</g>
<!-- ApplicationRecord&#45;&gt;User -->
<g id="edge5" class="edge"><title>ApplicationRecord&#45;&gt;User</title>
<path fill="none" stroke="black" d="M313.054,-162.436C323.043,-146.363 337.888,-122.477 347.617,-106.822"/>
</g>
<!-- Restaurant&#45;&gt;Review -->
<g id="edge1" class="edge"><title>Restaurant&#45;&gt;Review</title>
<path fill="none" stroke="#715397" d="M249.896,-67.4049C258.882,-59.1282 269.147,-49.6734 278.206,-41.3294"/>
<ellipse fill="none" stroke="#715397" cx="246.637" cy="-70.406" rx="4.00002" ry="4.00002"/>
<polygon fill="#715397" stroke="#715397" points="278.439,-41.1149 288.843,-37.6501 282.117,-37.7276 285.795,-34.3402 285.795,-34.3402 285.795,-34.3402 282.117,-37.7276 282.746,-31.0302 278.439,-41.1149 278.439,-41.1149"/>
</g>
<!-- User&#45;&gt;Review -->
<g id="edge4" class="edge"><title>User&#45;&gt;Review</title>
<path fill="none" stroke="#8812d6" d="M340.397,-67.2961C334.403,-59.6673 327.631,-51.0486 321.484,-43.2255"/>
<ellipse fill="none" stroke="#8812d6" cx="343.044" cy="-70.6658" rx="4.00002" ry="4.00002"/>
<polygon fill="#8812d6" stroke="#8812d6" points="321.304,-42.9968 318.665,-32.3534 318.215,-39.0652 315.126,-35.1336 315.126,-35.1336 315.126,-35.1336 318.215,-39.0652 311.588,-37.9138 321.304,-42.9968 321.304,-42.9968"/>
</g>
</g>
</svg>
